<svg width="96" height="95" viewBox="0 0 96 95" fill="none" xmlns="http://www.w3.org/2000/svg">
<rect x="1" y="0.5" width="94" height="94" rx="3.5" fill="white"/>
<rect x="1" y="0.5" width="94" height="94" rx="3.5" stroke="#185195"/>
<path d="M25.3608 19.9321L45.0092 8.74355C46.7095 7.75215 48.835 7.75215 50.5825 8.74355L70.5615 19.9793C71.5534 20.5459 72.1202 21.6789 71.9785 22.8119L71.3644 27.1552C69.5224 40.0905 60.8318 50.9958 48.646 55.6695C48.1265 55.8584 47.5125 55.8584 46.9929 55.6695C34.9489 50.9486 26.3999 40.0905 24.6524 27.2968L24.0384 22.7647C23.8494 21.6317 24.369 20.4986 25.3608 19.9321Z" fill="#185195"/>
<path d="M61.3986 30.271L48.1737 42.5926C46.3317 44.2921 43.4506 44.1977 41.7975 42.3565L38.6802 39.0047L55.2585 23.5672C57.1005 21.8677 59.9816 21.9621 61.6347 23.8033C63.3351 25.6917 63.2406 28.5714 61.3986 30.271Z" fill="#113969"/>
<path d="M54.8333 36.4082L48.2209 42.5926C46.3789 44.2921 43.4978 44.1977 41.8447 42.3565L35.6573 35.7472C33.957 33.9061 34.0514 31.0263 35.8935 29.374C36.7909 28.5242 37.9717 28.1465 39.1524 28.1937C40.286 28.241 41.4196 28.713 42.2697 29.61L45.3398 32.9147L48.4571 36.2665C50.1102 38.0605 52.9913 38.1549 54.8333 36.4082Z" fill="#113969"/>
<path opacity="0.4" d="M71.9313 22.9535L71.3173 27.2968C69.4753 40.2321 60.7847 51.1374 48.5989 55.8584C48.0794 56.0472 47.4653 56.0472 46.9458 55.8584C39.1998 52.837 32.8708 47.2663 28.9033 40.2321C32.918 46.3693 38.7747 51.2319 45.8122 53.97C46.3318 54.2061 46.9458 54.2061 47.4653 53.97C59.6511 49.2491 68.3417 38.3437 70.1838 25.4556L70.7978 21.1124C70.845 20.8291 70.845 20.5931 70.7978 20.3098C71.6479 20.8763 72.073 21.9149 71.9313 22.9535Z" fill="url(#paint0_linear_1893_29915)"/>
<path d="M60.7375 29.0435L47.5126 41.3652C45.6706 43.0647 42.7895 42.9703 41.1363 41.1291L38.019 37.7773L54.5974 22.3398C56.4394 20.6403 59.3205 20.7347 60.9736 22.5759C62.674 24.5115 62.5795 27.3912 60.7375 29.0435Z" fill="white"/>
<path d="M54.1722 35.228L47.5598 41.4124C45.7177 43.1119 42.8366 43.0175 41.1835 41.1763L34.9962 34.567C33.2958 32.7259 33.3903 29.8461 35.2323 28.1938C36.1297 27.344 37.3105 26.9664 38.4913 27.0136C39.6248 27.0608 40.7584 27.5329 41.6086 28.4298L44.6786 31.7345L47.7959 35.0864C49.449 36.8331 52.3302 36.9747 54.1722 35.228Z" fill="white"/>
<path d="M16.1543 62.0137L13.0781 70.5801H12.0762L9 62.0137H10.043L12.0469 67.6562C12.1289 67.8828 12.2012 68.0996 12.2637 68.3066C12.3301 68.5137 12.3887 68.7129 12.4395 68.9043C12.4902 69.0957 12.5352 69.2812 12.5742 69.4609C12.6133 69.2812 12.6582 69.0957 12.709 68.9043C12.7598 68.709 12.8184 68.5078 12.8848 68.3008C12.9512 68.0898 13.0254 67.8691 13.1074 67.6387L15.0996 62.0137H16.1543ZM19.6582 64.041C20.2051 64.041 20.6738 64.1621 21.0645 64.4043C21.4551 64.6465 21.7539 64.9863 21.9609 65.4238C22.168 65.8574 22.2715 66.3652 22.2715 66.9473V67.5508H17.8359C17.8477 68.3047 18.0352 68.8789 18.3984 69.2734C18.7617 69.668 19.2734 69.8652 19.9336 69.8652C20.3398 69.8652 20.6992 69.8281 21.0117 69.7539C21.3242 69.6797 21.6484 69.5703 21.9844 69.4258V70.2812C21.6602 70.4258 21.3379 70.5312 21.0176 70.5977C20.7012 70.6641 20.3262 70.6973 19.8926 70.6973C19.2754 70.6973 18.7363 70.5723 18.2754 70.3223C17.8184 70.0684 17.4629 69.6973 17.209 69.209C16.9551 68.7207 16.8281 68.123 16.8281 67.416C16.8281 66.7246 16.9434 66.127 17.1738 65.623C17.4082 65.1152 17.7363 64.7246 18.1582 64.4512C18.584 64.1777 19.084 64.041 19.6582 64.041ZM19.6465 64.8379C19.127 64.8379 18.7129 65.0078 18.4043 65.3477C18.0957 65.6875 17.9121 66.1621 17.8535 66.7715H21.252C21.248 66.3887 21.1875 66.0527 21.0703 65.7637C20.957 65.4707 20.7832 65.2441 20.5488 65.084C20.3145 64.9199 20.0137 64.8379 19.6465 64.8379ZM26.8418 64.041C26.9707 64.041 27.1055 64.0488 27.2461 64.0645C27.3867 64.0762 27.5117 64.0938 27.6211 64.1172L27.498 65.0195C27.3926 64.9922 27.2754 64.9707 27.1465 64.9551C27.0176 64.9395 26.8965 64.9316 26.7832 64.9316C26.5254 64.9316 26.2812 64.9844 26.0508 65.0898C25.8242 65.1914 25.625 65.3398 25.4531 65.5352C25.2812 65.7266 25.1465 65.959 25.0488 66.2324C24.9512 66.502 24.9023 66.8027 24.9023 67.1348V70.5801H23.9238V64.1582H24.7324L24.8379 65.3418H24.8789C25.0117 65.1035 25.1719 64.8867 25.3594 64.6914C25.5469 64.4922 25.7637 64.334 26.0098 64.2168C26.2598 64.0996 26.5371 64.041 26.8418 64.041ZM29.8066 64.1582V70.5801H28.834V64.1582H29.8066ZM29.332 61.7559C29.4922 61.7559 29.6289 61.8086 29.7422 61.9141C29.8594 62.0156 29.918 62.1758 29.918 62.3945C29.918 62.6094 29.8594 62.7695 29.7422 62.875C29.6289 62.9805 29.4922 63.0332 29.332 63.0332C29.1641 63.0332 29.0234 62.9805 28.9102 62.875C28.8008 62.7695 28.7461 62.6094 28.7461 62.3945C28.7461 62.1758 28.8008 62.0156 28.9102 61.9141C29.0234 61.8086 29.1641 61.7559 29.332 61.7559ZM34.7285 64.9199H33.1289V70.5801H32.1562V64.9199H31.0195V64.4512L32.1562 64.1289V63.7012C32.1562 63.1621 32.2363 62.7246 32.3965 62.3887C32.5566 62.0488 32.7891 61.7988 33.0938 61.6387C33.3984 61.4785 33.7695 61.3984 34.207 61.3984C34.4531 61.3984 34.6777 61.4199 34.8809 61.4629C35.0879 61.5059 35.2695 61.5547 35.4258 61.6094L35.1738 62.377C35.041 62.334 34.8906 62.2949 34.7227 62.2598C34.5586 62.2207 34.3906 62.2012 34.2188 62.2012C33.8477 62.2012 33.5723 62.3223 33.3926 62.5645C33.2168 62.8027 33.1289 63.1777 33.1289 63.6895V64.1582H34.7285V64.9199ZM36.8789 64.1582V70.5801H35.9062V64.1582H36.8789ZM36.4043 61.7559C36.5645 61.7559 36.7012 61.8086 36.8145 61.9141C36.9316 62.0156 36.9902 62.1758 36.9902 62.3945C36.9902 62.6094 36.9316 62.7695 36.8145 62.875C36.7012 62.9805 36.5645 63.0332 36.4043 63.0332C36.2363 63.0332 36.0957 62.9805 35.9824 62.875C35.873 62.7695 35.8184 62.6094 35.8184 62.3945C35.8184 62.1758 35.873 62.0156 35.9824 61.9141C36.0957 61.8086 36.2363 61.7559 36.4043 61.7559ZM41.5078 70.6973C40.9297 70.6973 40.4199 70.5781 39.9785 70.3398C39.5371 70.1016 39.1934 69.7383 38.9473 69.25C38.7012 68.7617 38.5781 68.1465 38.5781 67.4043C38.5781 66.627 38.707 65.9922 38.9648 65.5C39.2266 65.0039 39.5859 64.6367 40.043 64.3984C40.5 64.1602 41.0195 64.041 41.6016 64.041C41.9219 64.041 42.2305 64.0742 42.5273 64.1406C42.8281 64.2031 43.0742 64.2832 43.2656 64.3809L42.9727 65.1953C42.7773 65.1172 42.5508 65.0469 42.293 64.9844C42.0391 64.9219 41.8008 64.8906 41.5781 64.8906C41.1328 64.8906 40.7617 64.9863 40.4648 65.1777C40.1719 65.3691 39.9512 65.6504 39.8027 66.0215C39.6582 66.3926 39.5859 66.8496 39.5859 67.3926C39.5859 67.9121 39.6562 68.3555 39.7969 68.7227C39.9414 69.0898 40.1543 69.3711 40.4355 69.5664C40.7207 69.7578 41.0762 69.8535 41.502 69.8535C41.8418 69.8535 42.1484 69.8184 42.4219 69.748C42.6953 69.6738 42.9434 69.5879 43.166 69.4902V70.3574C42.9512 70.4668 42.7109 70.5508 42.4453 70.6094C42.1836 70.668 41.8711 70.6973 41.5078 70.6973ZM47.0918 64.0527C47.8574 64.0527 48.4258 64.2246 48.7969 64.5684C49.168 64.9121 49.3535 65.4609 49.3535 66.2148V70.5801H48.6445L48.457 69.6309H48.4102C48.2305 69.8652 48.043 70.0625 47.8477 70.2227C47.6523 70.3789 47.4258 70.498 47.168 70.5801C46.9141 70.6582 46.6016 70.6973 46.2305 70.6973C45.8398 70.6973 45.4922 70.6289 45.1875 70.4922C44.8867 70.3555 44.6484 70.1484 44.4727 69.8711C44.3008 69.5938 44.2148 69.2422 44.2148 68.8164C44.2148 68.1758 44.4688 67.6836 44.9766 67.3398C45.4844 66.9961 46.2578 66.8086 47.2969 66.7773L48.4043 66.7305V66.3379C48.4043 65.7832 48.2852 65.3945 48.0469 65.1719C47.8086 64.9492 47.4727 64.8379 47.0391 64.8379C46.7031 64.8379 46.3828 64.8867 46.0781 64.9844C45.7734 65.082 45.4844 65.1973 45.2109 65.3301L44.9121 64.5918C45.2012 64.4434 45.5332 64.3164 45.9082 64.2109C46.2832 64.1055 46.6777 64.0527 47.0918 64.0527ZM48.3926 67.416L47.4141 67.457C46.6133 67.4883 46.0488 67.6191 45.7207 67.8496C45.3926 68.0801 45.2285 68.4062 45.2285 68.8281C45.2285 69.1953 45.3398 69.4668 45.5625 69.6426C45.7852 69.8184 46.0801 69.9062 46.4473 69.9062C47.0176 69.9062 47.4844 69.748 47.8477 69.4316C48.2109 69.1152 48.3926 68.6406 48.3926 68.0078V67.416ZM53.6426 70.6973C52.8301 70.6973 52.1855 70.4199 51.709 69.8652C51.2363 69.3105 51 68.4863 51 67.3926C51 66.2871 51.2422 65.4531 51.7266 64.8906C52.2109 64.3242 52.8555 64.041 53.6602 64.041C54 64.041 54.2969 64.0859 54.5508 64.1758C54.8047 64.2656 55.0234 64.3867 55.207 64.5391C55.3906 64.6875 55.5449 64.8574 55.6699 65.0488H55.7402C55.7246 64.9277 55.709 64.7617 55.6934 64.5508C55.6777 64.3398 55.6699 64.168 55.6699 64.0352V61.4629H56.6426V70.5801H55.8574L55.7109 69.666H55.6699C55.5488 69.8574 55.3945 70.0312 55.207 70.1875C55.0234 70.3438 54.8027 70.4688 54.5449 70.5625C54.291 70.6523 53.9902 70.6973 53.6426 70.6973ZM53.7949 69.8887C54.4824 69.8887 54.9688 69.6934 55.2539 69.3027C55.5391 68.9121 55.6816 68.332 55.6816 67.5625V67.3867C55.6816 66.5703 55.5449 65.9434 55.2715 65.5059C55.002 65.0684 54.5098 64.8496 53.7949 64.8496C53.1973 64.8496 52.75 65.0801 52.4531 65.541C52.1562 65.998 52.0078 66.623 52.0078 67.416C52.0078 68.2051 52.1543 68.8145 52.4473 69.2441C52.7441 69.6738 53.1934 69.8887 53.7949 69.8887ZM61.1074 64.0527C61.873 64.0527 62.4414 64.2246 62.8125 64.5684C63.1836 64.9121 63.3691 65.4609 63.3691 66.2148V70.5801H62.6602L62.4727 69.6309H62.4258C62.2461 69.8652 62.0586 70.0625 61.8633 70.2227C61.668 70.3789 61.4414 70.498 61.1836 70.5801C60.9297 70.6582 60.6172 70.6973 60.2461 70.6973C59.8555 70.6973 59.5078 70.6289 59.2031 70.4922C58.9023 70.3555 58.6641 70.1484 58.4883 69.8711C58.3164 69.5938 58.2305 69.2422 58.2305 68.8164C58.2305 68.1758 58.4844 67.6836 58.9922 67.3398C59.5 66.9961 60.2734 66.8086 61.3125 66.7773L62.4199 66.7305V66.3379C62.4199 65.7832 62.3008 65.3945 62.0625 65.1719C61.8242 64.9492 61.4883 64.8379 61.0547 64.8379C60.7188 64.8379 60.3984 64.8867 60.0938 64.9844C59.7891 65.082 59.5 65.1973 59.2266 65.3301L58.9277 64.5918C59.2168 64.4434 59.5488 64.3164 59.9238 64.2109C60.2988 64.1055 60.6934 64.0527 61.1074 64.0527ZM62.4082 67.416L61.4297 67.457C60.6289 67.4883 60.0645 67.6191 59.7363 67.8496C59.4082 68.0801 59.2441 68.4062 59.2441 68.8281C59.2441 69.1953 59.3555 69.4668 59.5781 69.6426C59.8008 69.8184 60.0957 69.9062 60.4629 69.9062C61.0332 69.9062 61.5 69.748 61.8633 69.4316C62.2266 69.1152 62.4082 68.6406 62.4082 68.0078V67.416ZM71.5078 64.041C72.3086 64.041 72.9473 64.3164 73.4238 64.8672C73.9004 65.418 74.1387 66.2461 74.1387 67.3516C74.1387 68.082 74.0293 68.6953 73.8105 69.1914C73.5918 69.6875 73.2832 70.0625 72.8848 70.3164C72.4902 70.5703 72.0234 70.6973 71.4844 70.6973C71.1445 70.6973 70.8457 70.6523 70.5879 70.5625C70.3301 70.4727 70.1094 70.3516 69.9258 70.1992C69.7422 70.0469 69.5898 69.8809 69.4688 69.7012H69.3984C69.4102 69.8535 69.4238 70.0371 69.4395 70.252C69.459 70.4668 69.4688 70.6543 69.4688 70.8145V73.4512H68.4902V64.1582H69.293L69.4219 65.1074H69.4688C69.5938 64.9121 69.7461 64.7344 69.9258 64.5742C70.1055 64.4102 70.3242 64.2812 70.582 64.1875C70.8438 64.0898 71.1523 64.041 71.5078 64.041ZM71.3379 64.8613C70.8926 64.8613 70.5332 64.9473 70.2598 65.1191C69.9902 65.291 69.793 65.5488 69.668 65.8926C69.543 66.2324 69.4766 66.6602 69.4688 67.1758V67.3633C69.4688 67.9062 69.5273 68.3652 69.6445 68.7402C69.7656 69.1152 69.9629 69.4004 70.2363 69.5957C70.5137 69.791 70.8848 69.8887 71.3496 69.8887C71.748 69.8887 72.0801 69.7812 72.3457 69.5664C72.6113 69.3516 72.8086 69.0527 72.9375 68.6699C73.0703 68.2832 73.1367 67.8398 73.1367 67.3398C73.1367 66.582 72.9883 65.9805 72.6914 65.5352C72.3984 65.0859 71.9473 64.8613 71.3379 64.8613ZM81.375 67.3574C81.375 67.8848 81.3066 68.3555 81.1699 68.7695C81.0332 69.1836 80.8359 69.5332 80.5781 69.8184C80.3203 70.1035 80.0078 70.3223 79.6406 70.4746C79.2773 70.623 78.8652 70.6973 78.4043 70.6973C77.9746 70.6973 77.5801 70.623 77.2207 70.4746C76.8652 70.3223 76.5566 70.1035 76.2949 69.8184C76.0371 69.5332 75.8359 69.1836 75.6914 68.7695C75.5508 68.3555 75.4805 67.8848 75.4805 67.3574C75.4805 66.6543 75.5996 66.0566 75.8379 65.5645C76.0762 65.0684 76.416 64.6914 76.8574 64.4336C77.3027 64.1719 77.832 64.041 78.4453 64.041C79.0312 64.041 79.543 64.1719 79.9805 64.4336C80.4219 64.6953 80.7637 65.0742 81.0059 65.5703C81.252 66.0625 81.375 66.6582 81.375 67.3574ZM76.4883 67.3574C76.4883 67.873 76.5566 68.3203 76.6934 68.6992C76.8301 69.0781 77.041 69.3711 77.3262 69.5781C77.6113 69.7852 77.9785 69.8887 78.4277 69.8887C78.873 69.8887 79.2383 69.7852 79.5234 69.5781C79.8125 69.3711 80.0254 69.0781 80.1621 68.6992C80.2988 68.3203 80.3672 67.873 80.3672 67.3574C80.3672 66.8457 80.2988 66.4043 80.1621 66.0332C80.0254 65.6582 79.8145 65.3691 79.5293 65.166C79.2441 64.9629 78.875 64.8613 78.4219 64.8613C77.7539 64.8613 77.2637 65.082 76.9512 65.5234C76.6426 65.9648 76.4883 66.5762 76.4883 67.3574ZM85.9746 64.041C86.1035 64.041 86.2383 64.0488 86.3789 64.0645C86.5195 64.0762 86.6445 64.0938 86.7539 64.1172L86.6309 65.0195C86.5254 64.9922 86.4082 64.9707 86.2793 64.9551C86.1504 64.9395 86.0293 64.9316 85.916 64.9316C85.6582 64.9316 85.4141 64.9844 85.1836 65.0898C84.957 65.1914 84.7578 65.3398 84.5859 65.5352C84.4141 65.7266 84.2793 65.959 84.1816 66.2324C84.084 66.502 84.0352 66.8027 84.0352 67.1348V70.5801H83.0566V64.1582H83.8652L83.9707 65.3418H84.0117C84.1445 65.1035 84.3047 64.8867 84.4922 64.6914C84.6797 64.4922 84.8965 64.334 85.1426 64.2168C85.3926 64.0996 85.6699 64.041 85.9746 64.041Z" fill="#002E17"/>
<g clip-path="url(#clip0_1893_29915)">
<path fill-rule="evenodd" clip-rule="evenodd" d="M14.3303 78.0887C14.3877 77.6635 14.3421 77.3407 14.1943 77.1291C14.0445 76.9169 13.7962 76.8107 13.4512 76.8107H13.3344L12.9981 79.3665C13.4062 79.357 13.7163 79.2522 13.9266 79.0469C14.1406 78.8415 14.276 78.5251 14.3303 78.0887ZM16.717 79.494C16.3601 79.9335 15.8653 80.289 15.2338 80.5533L16.717 85.3006H13.5665L12.7654 81.1555L12.2207 85.3006H9.25L10.6552 74.5872H14.0739C15.2313 74.5872 16.1024 74.8823 16.6926 75.4751C17.2785 76.0672 17.5075 76.8722 17.3753 77.8896C17.2916 78.5137 17.0719 79.0512 16.717 79.494ZM21.3986 80.5972C21.4541 80.1734 21.4285 79.8532 21.3237 79.6378C21.2183 79.4255 21.0292 79.3213 20.7641 79.3213C20.555 79.3213 20.3715 79.4255 20.2131 79.634C20.0583 79.8418 19.9192 80.1621 19.8 80.5972H21.3986ZM23.2149 78.5106C23.6873 79.1329 23.8401 80.0679 23.6779 81.3175C23.6567 81.4639 23.6443 81.5763 23.6305 81.6541C23.6186 81.7276 23.603 81.7967 23.5837 81.8601H19.6347L19.6216 81.9637C19.5485 82.5156 19.5585 82.9125 19.6502 83.153C19.7457 83.3936 19.9316 83.516 20.2131 83.516C20.4227 83.516 20.598 83.4444 20.7459 83.3069C20.895 83.1694 21.0167 82.9577 21.1097 82.672H23.3828C23.1613 83.5549 22.7333 84.2469 22.0937 84.7537C21.4572 85.2592 20.6872 85.511 19.7969 85.511C18.7449 85.511 17.9799 85.1719 17.5006 84.4906C17.0202 83.8067 16.8636 82.8359 17.029 81.5763C17.1968 80.3091 17.6098 79.325 18.2769 78.6286C18.9402 77.9279 19.7913 77.5787 20.8208 77.5787C21.9439 77.5787 22.7395 77.8896 23.2149 78.5106ZM27.9789 85.1819C27.7712 85.2943 27.5471 85.3772 27.3144 85.4306C27.081 85.4852 26.8184 85.511 26.5338 85.511C25.5704 85.511 24.8604 85.16 24.3955 84.4522C23.9344 83.7465 23.7834 82.7775 23.9432 81.5449C24.1029 80.3392 24.5159 79.3741 25.1811 78.6538C25.8456 77.9329 26.6555 77.5787 27.6027 77.5787C27.8641 77.5787 28.1074 77.6044 28.3246 77.6496C28.5449 77.7036 28.7508 77.7747 28.9367 77.8789L28.6347 80.1753C28.5499 80.1195 28.46 80.078 28.367 80.0516C28.2722 80.0246 28.1699 80.0126 28.0575 80.0126C27.7774 80.0126 27.5316 80.1483 27.33 80.4221C27.1278 80.6953 26.9943 81.0695 26.9319 81.5449C26.8689 82.0215 26.9001 82.3832 27.0243 82.6237C27.1453 82.866 27.3624 82.9898 27.6688 82.9898C27.7555 82.9898 27.8516 82.9759 27.9546 82.9477C28.0575 82.922 28.1674 82.8855 28.2847 82.8372L27.9789 85.1819ZM28.6297 85.3006L30.1628 73.6107H32.8652L31.3334 85.3006H28.6297ZM36.7057 81.5449C36.7756 81.0168 36.7725 80.613 36.6926 80.3392C36.6158 80.0598 36.4655 79.9222 36.2477 79.9222C36.0331 79.9222 35.8515 80.0598 35.7049 80.3329C35.5583 80.6073 35.4459 81.0117 35.3779 81.5449C35.308 82.0799 35.3092 82.4799 35.3835 82.7499C35.4572 83.0174 35.6044 83.153 35.8216 83.153C36.0449 83.153 36.2277 83.0161 36.3781 82.7386C36.5303 82.4604 36.6402 82.0635 36.7057 81.5449ZM37.2585 77.7872H39.9609L38.9757 85.3006H36.2751L36.3831 84.4742C36.068 84.8359 35.7579 85.0959 35.4491 85.2636C35.1445 85.4294 34.8213 85.511 34.4875 85.511C33.745 85.511 33.2084 85.1644 32.8802 84.4679C32.5501 83.7735 32.4671 82.7983 32.6287 81.5449C32.7959 80.2821 33.1323 79.3075 33.6383 78.6173C34.1437 77.9228 34.7739 77.5787 35.5283 77.5787C35.8683 77.5787 36.1672 77.6604 36.4318 77.8242C36.6895 77.9881 36.9328 78.2475 37.1519 78.6023L37.2585 77.7872ZM39.7819 85.3006L40.7671 77.7872H43.3641L43.2193 78.9025C43.5281 78.4723 43.8682 78.1539 44.2364 77.9448C44.6057 77.7414 45.0194 77.639 45.4768 77.639C45.9041 77.639 46.2436 77.742 46.4982 77.9523C46.7497 78.1596 46.9106 78.4767 46.9818 78.9025C47.247 78.4723 47.5571 78.1539 47.909 77.9448C48.2602 77.7414 48.6677 77.639 49.1282 77.639C49.6985 77.639 50.1091 77.8079 50.3643 78.1514C50.6183 78.4931 50.7037 78.996 50.617 79.6516L49.877 85.3006H47.1721L47.7455 80.9263C47.7786 80.6933 47.7568 80.5188 47.6906 80.4058C47.6232 80.2927 47.5022 80.2394 47.3337 80.2394C47.1777 80.2394 47.0467 80.3009 46.9419 80.4328C46.8389 80.5615 46.7702 80.7423 46.739 80.9703L46.1719 85.3006H43.4851L44.056 80.9263C44.0891 80.6933 44.0703 80.5188 44.0036 80.4058C43.9349 80.2927 43.8139 80.2394 43.6448 80.2394C43.4826 80.2394 43.3491 80.3009 43.2398 80.4328C43.1351 80.5615 43.0663 80.7423 43.0371 80.9703L42.4718 85.3006H39.7819ZM55.2393 80.5972C55.2942 80.1734 55.2693 79.8532 55.162 79.6378C55.0578 79.4255 54.8724 79.3213 54.6054 79.3213C54.3957 79.3213 54.2129 79.4255 54.0563 79.634C53.8985 79.8418 53.7593 80.1621 53.6395 80.5972H55.2393ZM57.0563 78.5106C57.5274 79.1329 57.6821 80.0679 57.5193 81.3175C57.5006 81.4639 57.4862 81.5763 57.4731 81.6541C57.4619 81.7276 57.4431 81.7967 57.4251 81.8601H53.4754L53.4623 81.9637C53.3899 82.5156 53.3999 82.9125 53.4916 83.153C53.5858 83.3936 53.7724 83.516 54.0563 83.516C54.266 83.516 54.4394 83.4444 54.5867 83.3069C54.7339 83.1694 54.8574 82.9577 54.951 82.672H57.2254C57.0039 83.5549 56.5721 84.2469 55.9338 84.7537C55.2967 85.2592 54.5311 85.511 53.6364 85.511C52.585 85.511 51.82 85.1719 51.3414 84.4906C50.8604 83.8067 50.705 82.8359 50.8697 81.5763C51.0375 80.3091 51.4499 79.325 52.1189 78.6286C52.7791 77.9279 53.6307 77.5787 54.6622 77.5787C55.7834 77.5787 56.5808 77.8896 57.0563 78.5106Z" fill="#A4C929"/>
<path fill-rule="evenodd" clip-rule="evenodd" d="M61.5069 81.5618H62.6882L62.6104 77.5907L61.5069 81.5618ZM64.6797 74.5872L65.6045 85.3007H62.7082L62.6882 83.7252H60.9328L60.4981 85.3007H57.5991L61.3328 74.5872H64.6797ZM71.1714 79.8808C71.3178 78.7549 71.347 77.992 71.2533 77.585C71.1627 77.1794 70.941 76.9771 70.5774 76.9771C70.2133 76.9771 69.9316 77.1806 69.7314 77.5932C69.5312 78.0039 69.3617 78.7656 69.2137 79.8808C69.0667 80.9904 69.0396 81.7509 69.1333 82.161C69.228 82.5704 69.4523 82.7775 69.8185 82.7775C70.1795 82.7775 70.4586 82.5754 70.6532 82.171C70.8498 81.7684 71.0244 81.0049 71.1714 79.8808ZM73.6586 75.833C74.228 76.8032 74.3955 78.1766 74.163 79.9524C74.0273 80.9747 73.7938 81.8633 73.4604 82.6137C73.1296 83.3685 72.6897 84.0045 72.1449 84.5214L73.2796 85.8853L70.751 87.0307L69.8046 85.496C69.7714 85.496 69.7201 85.5003 69.6485 85.5053C69.5788 85.5092 69.5256 85.511 69.4907 85.511C68.2116 85.511 67.2857 85.0281 66.7163 84.0585C66.1417 83.0934 65.9697 81.7239 66.2006 79.9524C66.4346 78.1822 66.9616 76.8095 67.7896 75.8387C68.6135 74.8641 69.6592 74.3768 70.921 74.3768C72.1843 74.3768 73.0948 74.8641 73.6586 75.833ZM74.5419 81.4696L75.4452 74.5872H78.4179L77.4782 81.7546C77.4372 82.0699 77.4618 82.2997 77.555 82.4491C77.6472 82.5967 77.8075 82.6721 78.041 82.6721C78.2765 82.6721 78.4634 82.5967 78.5935 82.4491C78.7266 82.2997 78.8096 82.0699 78.8516 81.7546L79.7902 74.5872H82.7762L81.8744 81.4696C81.6931 82.8661 81.2625 83.8916 80.5865 84.5389C79.9096 85.1901 78.9412 85.511 77.6677 85.511C76.4049 85.511 75.5225 85.1901 75.0207 84.5389C74.5204 83.8916 74.3601 82.8661 74.5419 81.4696ZM82.3757 85.3007L83.7763 74.5872H86.7499L85.3458 85.3007H82.3757Z" fill="#02793E"/>
</g>
<defs>
<linearGradient id="paint0_linear_1893_29915" x1="48.7561" y1="38.5367" x2="57.433" y2="21.5932" gradientUnits="userSpaceOnUse">
<stop stop-color="#113969"/>
<stop offset="1" stop-color="#113969" stop-opacity="0"/>
</linearGradient>
<clipPath id="clip0_1893_29915">
<rect width="77.5" height="13.4199" fill="white" transform="translate(9.25 73.5801)"/>
</clipPath>
</defs>
</svg>
