<svg width="3938" height="1257" viewBox="0 0 3938 1257" fill="none" xmlns="http://www.w3.org/2000/svg">
<path d="M0 628.267C0 1130.67 0.4 1256.27 1.73333 1255.2C6.53333 1251.33 521.067 826.133 523.067 824.267C525.2 822.133 518.667 816.533 408.667 725.467C344.533 672.4 292.133 628.533 292.267 628C292.533 627.467 345.067 583.733 409.067 530.8C473.2 477.867 525.067 434 524.4 433.467C523.867 432.933 412.4 340.8 276.667 228.667C141.067 116.667 23.2 19.3333 15.0667 12.5333L0 -4.91881e-05V628.267Z" fill="white"/>
<path d="M792.667 214.4C650.4 332 532.267 429.6 530.134 431.333L526.267 434.267L642.8 530.667C706.934 583.733 759.467 627.467 759.733 628C759.867 628.533 707.467 672.4 643.334 725.467C550 802.667 526.934 822.267 528.267 823.6C529.2 824.533 647.334 922.267 790.667 1040.8L1051.33 1256.27L1051.73 942.267C1051.87 769.467 1051.87 486.933 1051.73 314.4L1051.33 0.666536L792.667 214.4Z" fill="white"/>
<path d="M1480.33 292.467C1402.47 301.8 1358.6 341 1351 407.8C1349.93 417.267 1349.67 482.867 1349.93 636.333C1350.47 849.8 1350.47 851.8 1353.27 863.667C1366.73 921.267 1402.33 950.733 1471 961.133C1489.93 964.067 1537.53 964.467 1556.33 961.933C1624.73 952.6 1662.33 923.667 1677.27 869L1680.87 855.667L1681.4 771.933L1681.8 688.333H1627.67H1573.67V753.933C1573.67 825.667 1573.13 831.667 1566.07 844.467C1561.4 853.267 1552.73 860.733 1543.13 864.6C1536.73 867.133 1533.13 867.533 1517 867.667C1502.33 867.667 1496.73 867.133 1490.87 865.267C1476.07 860.333 1465.93 849.267 1460.6 832.067C1458.6 825.667 1458.33 806.2 1457.93 636.333C1457.53 440.467 1457.8 430.067 1463 415.933C1466.07 407.667 1473.27 398.867 1480.33 394.333C1495.8 384.6 1527.93 383.267 1546.47 391.667C1554.87 395.4 1562.87 403.133 1566.87 411.267C1573 423.933 1573.67 431.8 1573.67 492.6V549.667H1627.8H1681.8L1681.4 474.6C1680.87 401.267 1680.87 399.4 1677.8 388.6C1671.13 364.333 1661.93 347.667 1646.73 332.467C1627.4 313.133 1600.2 300.467 1563.67 294.2C1549.53 291.667 1495.8 290.6 1480.33 292.467Z" fill="white"/>
<path d="M3329.67 291.8C3290.33 296.467 3264.2 305 3243.53 319.667C3213.8 341 3198.6 370.6 3195 414.6C3193.27 436.333 3193.27 819.133 3195 840.333C3200.73 910.333 3240.07 949.533 3315.67 961C3345.4 965.4 3389.53 964.867 3419.8 959.667C3434.33 957.133 3454.6 950.6 3466.33 944.6C3503.53 925.933 3525.13 894.2 3531 849.667C3531.8 843.533 3532.2 756.467 3532.33 627C3532.33 402.067 3532.33 401.933 3526.2 381.667C3511.93 333.933 3477.4 305.933 3418.47 294.867C3406.2 292.467 3397.67 291.933 3369 291.667C3349.93 291.4 3332.2 291.533 3329.67 291.8ZM3389.93 389.667C3406.07 394.6 3416.6 405.8 3421.27 423C3423.53 431.133 3423.67 443.667 3423.67 627C3423.67 836.867 3423.93 829.133 3417 843C3413.27 850.467 3403.4 859.667 3395.93 863C3386.33 867.267 3374.6 868.733 3357.93 868.067C3333.8 867 3320.2 860.467 3311.4 845.8C3302.47 831 3302.87 840.6 3303.27 623L3303.67 426.333L3306.87 417.933C3313 401.267 3327.53 390.067 3347 387.133C3359.13 385.267 3379.67 386.467 3389.93 389.667Z" fill="white"/>
<path d="M3743.67 291.8C3693.13 298.867 3664.73 311.133 3642.2 335.533C3623 356.067 3613.93 378.467 3610.87 412.867C3608.6 437.8 3610.07 530.067 3613 543C3619.27 571.133 3633.4 593.133 3657.4 612.467C3673.93 625.8 3693.8 638.2 3747 668.333C3774.47 683.933 3799.8 698.733 3803.13 701.133C3811 706.867 3819.4 716.067 3822.73 722.6C3829.13 735 3829.93 740.733 3830.6 776.467C3831.67 825.533 3829 839.933 3816.87 853.533C3796.47 876.333 3750.87 876.333 3730.47 853.533C3723.67 845.933 3719.53 836.2 3717.67 823.267C3717 818.333 3716.33 791.4 3716.33 763.267V712.333H3663H3609.67V769.533C3609.67 800.867 3610.33 834.2 3611 843.4C3615.27 895.8 3635.67 927.8 3677.27 947.267C3721 967.8 3807.8 969.8 3858.6 951.667C3898.33 937.4 3922.73 910.6 3932.33 870.733C3936.87 851.933 3937.93 828.467 3937.27 767.933C3936.6 701.8 3935.8 696.067 3924.47 673.133C3914.47 653.133 3901 638.467 3876.33 621.133C3862.6 611.4 3853.53 606.067 3798.33 575C3771.93 560.2 3747.53 546.067 3744.2 543.533C3727.8 531.533 3719.93 517.933 3717.53 497.267C3715.27 478.2 3716.6 428.6 3719.67 419C3727.27 394.333 3746.73 382.867 3778.07 384.6C3795 385.667 3804.2 389.267 3813.8 398.867C3818.87 403.933 3822.2 408.867 3824.47 414.333C3827.67 422.333 3827.67 422.733 3828.07 477.267L3828.47 532.333H3881.8H3935V471.133C3935 422.467 3934.6 407.667 3933 398.2C3923.13 340.867 3885.67 306.6 3819.4 294.2C3808.07 292.2 3753.67 290.333 3743.67 291.8Z" fill="white"/>
<path d="M1769.67 626.867V956.333H1823.67H1877.67V825V693.667H1905.4H1933L1974.87 825L2016.73 956.333H2071.93C2102.2 956.333 2127 956.2 2127 955.933C2127 955.8 2106.07 893.267 2080.33 817.133C2054.73 741 2033.67 678.333 2033.67 677.8C2033.67 677.4 2038.07 674.733 2043.4 671.933C2075.8 654.733 2096.07 625 2102.33 584.867C2104.2 573.533 2104.47 559.533 2104.07 489.667L2103.53 407.667L2099.93 394.333C2098.07 387 2093.27 374.733 2089.53 367C2083.4 354.6 2081.13 351.533 2069.8 340.333C2052.07 322.867 2035.4 313.667 2008.33 306.333C1980.33 299 1975.67 298.733 1868.73 298.067L1769.67 297.4V626.867ZM1954.2 395.133C1976.2 399.133 1989.67 412.467 1994.47 434.867C1995.8 441.533 1996.33 456.333 1996.33 497C1996.33 554.6 1995.67 561.933 1989.13 574.6C1984.6 583.8 1974.2 592.733 1963.93 596.467C1956.2 599.267 1953.13 599.533 1916.73 600.067L1877.67 600.6V497.133V393.667H1912.07C1931 393.667 1949.93 394.333 1954.2 395.133Z" fill="white"/>
<path d="M2193.67 627V956.333H2339H2484.33V909V861.667H2393.67H2303V765.667V669.667H2377.67H2452.33V622.333V575H2377.67H2303V484.333V393.667H2392.33H2481.67V345.667V297.667H2337.67H2193.67V627Z" fill="white"/>
<path d="M2563 627V956.333H2656.73C2757.8 956.333 2771 955.667 2796.33 949.267C2838.73 938.467 2865.67 918.6 2881.67 886.333C2889 871.4 2892.87 857.8 2895 839C2896.07 830.2 2896.33 762.867 2896.07 619C2895.53 414.333 2895.53 411.533 2892.73 399.667C2880.2 345 2843.67 313.133 2781.67 302.333C2760.33 298.6 2733 297.667 2648.07 297.667H2563V627ZM2747.4 395.667C2764.87 399.267 2777.53 409.4 2783 423.933C2788.2 437.8 2788.47 450.067 2788.07 636.333C2787.67 801.4 2787.4 816.333 2785.27 823.4C2779.4 843.267 2769.67 853 2750.33 858.733C2745.53 860.067 2733.53 860.867 2707.4 861.267L2671 861.933V627.8V393.667H2704.73C2728.73 393.667 2740.87 394.2 2747.4 395.667Z" fill="white"/>
<path d="M2991 627V956.333H3045H3099V627V297.667H3045H2991V627Z" fill="white"/>
</svg>
